<svg viewBox="0 0 215.93 136.68" xmlns="http://www.w3.org/2000/svg"><clipPath id="a"><path d="M0 0h215.93v136.68H0z"/></clipPath><g clip-path="url(#a)"><path d="M168.09 80.42c-2.92-2.31-6.64-5.18-10.15-7.86-4.85-3.6-11.51-8.39-20.22-14.32-1.06-.72-2.18-1.46-3.33-2.2l-1.84-1.16c-10.91-6.8-24.28-13.67-27.65-15.38l-8.08 2.56C94.69 45.3 85.51 57.94 71.71 59a21.31 21.31 0 0 1-2.21.12c-3.11 0-5.26-.85-6.57-2.59-1.56-2.08-1.68-5.13-.38-9.62a3.84 3.84 0 0 1 .14-.36C65.25 41.42 70.47 34 75 27.7l-2.73-.41c-5.48-.81-11.15-1.65-14.14-3.34-1.3-.74-3.35-2-5.59-3.37L24.9 69.7l2.33 2.59c.09.11 2.8 3.47 6.6 8.23l.07-.1a9.88 9.88 0 0 1 8-4 12.19 12.19 0 0 1 7.72 2.87 13.11 13.11 0 0 1 4.28 6.48l2.61-3.55a9.85 9.85 0 0 1 8-4 12.22 12.22 0 0 1 7.71 2.87 12.66 12.66 0 0 1 4.58 12.46h.5a12.25 12.25 0 0 1 7.7 2.84 12.7 12.7 0 0 1 4.52 12.23c.31 0 .62-.05.93-.05a12.29 12.29 0 0 1 7.71 2.86c5 4.14 6.29 11.35 2.81 16.08l-1.79 2.41a92.63 92.63 0 0 0 12.82 3.61h.19c2.29.58 9.1 1.63 13-.46a19.32 19.32 0 0 0 6.25-5.9l-21-10.16a2.22 2.22 0 0 1 1.94-4l22.31 10.78a2.18 2.18 0 0 1 .51 0c1.53.25 6 .58 8.26-.89 2.74-1.79 3.31-6 3.43-8.05l-27.1-15.69a2.22 2.22 0 1 1 2.21-3.81l27.78 16.08c1.94.13 6.45.08 8.47-1.55 3.59-2.92 3.13-7.53 2.86-9L129 81.54a2.22 2.22 0 0 1 2.29-3.81L165.1 98c2.34.6 7.71 1.37 10.3-3.37 1.92-3.54 1.22-6.8-2.12-10z"/><path d="M71.54 94.61c2.11-2.86 1.18-7.35-2.05-10a7.78 7.78 0 0 0-4.89-1.86 5.43 5.43 0 0 0-4.48 2.15l-14.26 19.44c-2.11 2.85-1.18 7.33 2 10a7.8 7.8 0 0 0 4.88 1.85 5.41 5.41 0 0 0 4.48-2.15zm10.65 5.21A7.76 7.76 0 0 0 77.3 98a5.52 5.52 0 0 0-3.71 1.36c-.27.24-11.76 15.94-11.76 15.94s-.14.26-.22.39a5.32 5.32 0 0 0-.5 1c-1 2.78 0 6.37 2.76 8.64a7.81 7.81 0 0 0 4.9 1.86 5.37 5.37 0 0 0 4.46-2.19l11-15.14c2.11-2.86 1.19-7.35-2-10m13.13 15.01a7.78 7.78 0 0 0-4.89-1.87 5.41 5.41 0 0 0-4.47 2.17s-7.62 10.39-7.78 10.8c-1.18 2.8-.13 6.51 2.7 8.85a7.8 7.8 0 0 0 4.89 1.86 5.39 5.39 0 0 0 4.47-2.16l7.13-9.65c2.11-2.86 1.18-7.34-2-10M49.07 92.46c1.8-2.82.84-7.16-2.23-9.69a7.81 7.81 0 0 0-4.9-1.86 5.41 5.41 0 0 0-4.47 2.16l-4.55 6.15c-2.1 2.84-1.18 7.34 2.06 10a7.76 7.76 0 0 0 4.89 1.86 5.51 5.51 0 0 0 3.64-1.28c.29-.25 5.49-7.24 5.56-7.34m103-70.46a77.9 77.9 0 0 1-10.25-2c-6.15-1.42-13.82-3.22-21.82-3.22h-.56c-18.13.17-32.88 2.55-35.09 5.65l-1.76 2.44-1.48 2-1.26 1.73C75.17 35 69.43 43.06 66.76 48.35c-1.05 3.72-.63 5-.28 5.52.51.67 1.92.81 3 .81.56 0 1.16 0 1.81-.1 13.25-1 22.07-15.39 22.16-15.54a2.33 2.33 0 0 1 1.23-1l4.39-1.39 5.34-1.65a2.24 2.24 0 0 1 .67-.11 2.16 2.16 0 0 1 1 .24c.18.09 15.87 7.94 28.54 15.81.91.56 1.79 1.12 2.66 1.68s2 1.31 2.95 2c8.53 5.81 15.08 10.51 19.91 14.09 7.11 5.26 10.48 8.08 10.7 8.26l4.56 3.76a28.42 28.42 0 0 0 7.6-5.06c1.37-1.25 2.36-2.28 3.31-3.27a40.42 40.42 0 0 1 3.89-3.72l.11-.09-27.22-48.51a28.2 28.2 0 0 1-11 1.91M52.44 11.74a1.6 1.6 0 0 0-.5-2.12L36.47.18a1.21 1.21 0 0 0-.64-.18 1.34 1.34 0 0 0-1.17.71L.2 61.9A1.6 1.6 0 0 0 .71 64l15.46 9.43a1.35 1.35 0 0 0 1.83-.5zM215.72 61.9L181.27.71A1.35 1.35 0 0 0 180.1 0a1.25 1.25 0 0 0-.64.19L164 9.62a1.6 1.6 0 0 0-.5 2.12l34.45 61.19a1.33 1.33 0 0 0 1.82.52L215.22 64a1.59 1.59 0 0 0 .5-2.12"/></g></svg>