<svg fill="none" height="49" width="47" xmlns="http://www.w3.org/2000/svg"><ellipse cx="23.446" cy="24.466" fill="#b97429" rx="23.446" ry="24.466"/><path clip-rule="evenodd" d="m36.96 15.833a3.591 3.591 0 0 1 1.058 1.631c1.077 3.87.828 9.984.02 14.003a3.59 3.59 0 0 1 -1.058 1.633 4.238 4.238 0 0 1 -1.828.945c-2.532.616-12.72.616-12.72.616s-10.189 0-12.72-.616a4.238 4.238 0 0 1 -1.829-.945 3.59 3.59 0 0 1 -1.058-1.632c-1.084-3.853-.787-9.97-.021-13.984a3.59 3.59 0 0 1 1.058-1.632 4.238 4.238 0 0 1 1.829-.945c2.531-.616 12.72-.634 12.72-.634s10.188 0 12.72.616a4.237 4.237 0 0 1 1.828.945zm-9.34 8.633-8.452 4.369v-8.738z" fill="#fff" fill-rule="evenodd"/></svg>