<svg viewBox="0 0 49 49" xmlns="http://www.w3.org/2000/svg"><circle cx="24.5" cy="24.5" fill="#b97429" r="24.5"/><path d="m30.1 9.8c.5.2.6.6.6 1.1.1 3 2.4 5.3 5.3 5.4.7 0 1 .3 1 1.1v4.2c0 .7-.3 1.1-1 1-1.8 0-3.4-.4-5-1.2-.1 0-.1-.1-.2-.1h-.1v8.6c-.1 4.3-3.2 8.2-7.4 9.1-.4.1-.9.2-1.4.2h-1.4l-1.5-.3c-3.5-.8-6.4-3.9-7-7.6-.8-4.6 1.6-9 5.9-10.7 1.1-.4 2.2-.6 3.3-.6.5 0 .9.3.9.8v4.6c0 .5-.4.8-1 .9-1.3.1-2.2.7-2.8 1.9-.5 1.2-.4 2.3.4 3.4s2.1 1.5 3.4 1.2c1.2-.3 2.2-1.4 2.4-2.7v-.7-18.4c0-.5.2-.9.6-1.1zm-3.9 1.7v18.1c0 3.1-3 5.5-6 4.8-2.3-.5-3.8-2.6-3.8-4.9s1.6-4.3 3.8-4.9c.2-.1.3-.1.3-.3v-2.3-.3c-.2 0-.3 0-.5.1-4.1.7-6.9 4.7-6.3 8.9.6 4.3 4.3 7.1 8.5 6.7 3.8-.4 6.9-3.7 6.9-7.6v-10c0-.4.1-.7.5-.9s.7-.1 1 .1c.8.6 1.6 1 2.5 1.3.8.3 1.5.4 2.3.5v-.1-2.7c0-.1-.1-.2-.2-.2-3-.6-5-2.4-5.9-5.4-.1-.3-.1-.6-.2-1h-2.9z" fill="#fcfcfc"/><path d="m26.2 11.5h2.9c.1.3.1.7.2 1 .9 3 2.8 4.8 5.9 5.4.1 0 .2.1.2.2v2.8c-.8-.1-1.6-.2-2.3-.5-.9-.3-1.7-.7-2.5-1.3-.3-.2-.6-.3-1-.1s-.5.5-.5.9v10c0 3.9-3.1 7.2-6.9 7.6-4.2.4-7.8-2.5-8.5-6.7-.6-4.1 2.3-8.2 6.3-8.9.2 0 .3 0 .5-.1v2.6c0 .2 0 .3-.3.3-2.2.5-3.8 2.6-3.8 4.9s1.6 4.4 3.8 4.9c3 .7 5.9-1.6 6-4.8v-5.6z" fill="#fff"/></svg>