<svg width="49" height="49" fill="none" xmlns="http://www.w3.org/2000/svg"><circle cx="24.466" cy="24.466" r="24.466" fill="#B97429"/><path d="M24.723 12.45c3.914 0 4.377.014 5.923.085 1.429.065 2.205.304 2.721.505a4.54 4.54 0 0 1 1.686 1.096c.513.513.83 1.001 1.096 1.685.2.517.44 1.293.505 2.722.07 1.545.085 2.009.085 5.923 0 3.913-.015 4.377-.085 5.922-.065 1.43-.304 2.206-.505 2.722a4.541 4.541 0 0 1-1.096 1.685 4.542 4.542 0 0 1-1.686 1.097c-.516.2-1.292.44-2.721.505-1.546.07-2.01.085-5.923.085-3.914 0-4.378-.015-5.923-.085-1.43-.066-2.205-.304-2.722-.505a4.542 4.542 0 0 1-1.685-1.097 4.542 4.542 0 0 1-1.097-1.685c-.2-.516-.439-1.292-.504-2.721-.07-1.546-.086-2.01-.086-5.923 0-3.914.015-4.378.086-5.923.065-1.43.304-2.205.505-2.722a4.541 4.541 0 0 1 1.096-1.685 4.54 4.54 0 0 1 1.685-1.096c.517-.201 1.293-.44 2.722-.505 1.546-.07 2.01-.086 5.923-.086zm0-2.642c-3.98 0-4.48.017-6.043.089-1.56.07-2.626.319-3.558.68a7.188 7.188 0 0 0-2.597 1.691 7.184 7.184 0 0 0-1.69 2.597c-.363.932-.61 1.997-.681 3.557-.072 1.564-.089 2.063-.089 6.044 0 3.98.017 4.48.089 6.043.07 1.56.319 2.626.68 3.558a7.184 7.184 0 0 0 1.691 2.596 7.186 7.186 0 0 0 2.597 1.69c.932.363 1.997.61 3.558.682 1.563.071 2.062.088 6.043.088 3.98 0 4.48-.017 6.043-.088 1.56-.071 2.626-.32 3.558-.681a7.184 7.184 0 0 0 2.596-1.691 7.185 7.185 0 0 0 1.69-2.596c.363-.932.61-1.998.682-3.558.071-1.563.088-2.063.088-6.043 0-3.981-.017-4.48-.088-6.044-.071-1.56-.319-2.625-.681-3.557a7.185 7.185 0 0 0-1.69-2.597 7.186 7.186 0 0 0-2.597-1.69c-.932-.362-1.998-.61-3.558-.681-1.563-.072-2.063-.089-6.043-.089z" fill="#fff"/><path d="M24.73 16.946a7.527 7.527 0 1 0-.001 15.053 7.527 7.527 0 0 0 0-15.053zm0 12.412a4.886 4.886 0 1 1 0-9.771 4.886 4.886 0 0 1 0 9.771zm9.581-12.714a1.759 1.759 0 1 1-3.518 0 1.759 1.759 0 0 1 3.518 0z" fill="#fff"/></svg>