<svg width="49" height="49" fill="none" xmlns="http://www.w3.org/2000/svg"><circle cx="24.466" cy="24.466" r="24.466" fill="#B97429"/><path fill-rule="evenodd" clip-rule="evenodd" d="M38.866 15.071a12.009 12.009 0 0 1-3.454.947 6.03 6.03 0 0 0 2.644-3.327 12.053 12.053 0 0 1-3.819 1.46 6.014 6.014 0 0 0-10.248 5.485 17.071 17.071 0 0 1-12.396-6.284 5.982 5.982 0 0 0-.814 3.023 6.008 6.008 0 0 0 2.675 5.006 5.996 5.996 0 0 1-2.725-.752v.075a6.021 6.021 0 0 0 4.824 5.899 6.045 6.045 0 0 1-2.716.102 6.022 6.022 0 0 0 5.618 4.178 12.07 12.07 0 0 1-7.469 2.574c-.486 0-.965-.028-1.435-.085a17.026 17.026 0 0 0 9.219 2.703c11.062 0 17.11-9.164 17.11-17.111 0-.261-.004-.52-.017-.778a12.248 12.248 0 0 0 3.003-3.115z" fill="#fff"/></svg>